<?xml version="1.0" encoding="utf-8"?>
<!-- Generator: Adobe Illustrator 26.0.1, SVG Export Plug-In . SVG Version: 6.00 Build 0)  -->
<svg version="1.1" id="レイヤー_1" focusable="false"
	 xmlns="http://www.w3.org/2000/svg" xmlns:xlink="http://www.w3.org/1999/xlink" x="0px" y="0px" viewBox="0 0 512 512"
	 style="enable-background:new 0 0 512 512;" xml:space="preserve">
<style type="text/css">
	.st0{opacity:0.78;fill:#A19C99;}
</style>
<path class="st0" d="M424.5,389.9l-74-71.5c-3.3-3.2-7.9-5-12.6-5l-12,0.1c20.2-25.5,32.2-57.6,32-92.4
	C357.6,138.3,288.5,71.6,203.7,72c-84.8,0.4-153.2,67.9-152.8,150.7c0.4,82.8,69.5,149.5,154.3,149.1c35.7-0.2,68.4-12.2,94.3-32.2
	l0.1,11.7c0,4.6,1.9,9,5.2,12.2l74,71.5c7,6.7,18.2,6.7,25-0.1l20.8-20.5C431.5,407.6,431.4,396.7,424.5,389.9z M204.9,314.1
	c-52.2,0.3-94.7-40.8-94.9-91.8c-0.3-50.9,41.8-92.4,94-92.7c52.2-0.3,94.7,40.8,94.9,91.8C299.2,272.4,257.2,313.9,204.9,314.1z"/>
</svg>
